# xmcd
#
# Track frame offsets: 
#        150
#        2005
#        22142
#        44046
#        56495
#        72686
#        91257
#        112005
#        131053
#        147516
#        173026
#        201257
#        221869
#
# Disc length: 3258 seconds
#
# Revision: 0
# Processed by: cddbd v1.5.1PL2 Copyright (c) Steve Scherf et al.
# Submitted via: ExactAudioCopy v0.95b1
#
DISCID=d00cb80d
DTITLE=Anna Ternheim - Knust Hamburg Mar 19 2006
DYEAR=1900
DGENRE=
TTITLE0=Intro
TTITLE1=Better Be
TTITLE2=Wedding Song
TTITLE3=You Mean Nothing To Me
TTITLE4=Bring Down Like I
TTITLE5=A French Love
TTITLE6=Troubled Mind
TTITLE7=Shoreline
TTITLE8=To Be Gone
TTITLE9=I Say No
TTITLE10=My Secret
TTITLE11=China Girl
TTITLE12=Halfway To Fingerprints
EXTD=
EXTT0=
EXTT1=
EXTT2=
EXTT3=
EXTT4=
EXTT5=
EXTT6=
EXTT7=
EXTT8=
EXTT9=
EXTT10=
EXTT11=
EXTT12=
PLAYORDER=
